<svg width="66" height="74" viewBox="0 0 66 74" fill="none" xmlns="http://www.w3.org/2000/svg">
<g id="Frame 28">
<g id="g3941">
<g id="g844">
<g id="Group 10758">
<g id="Group 10761">
<g id="g846">
<g id="g852">
<path id="path854" d="M18.197 10.1375C19.1395 9.64717 19.9155 8.88837 20.4268 7.95704C20.9381 7.02572 21.1617 5.96369 21.0694 4.90526C20.9772 3.84684 20.5731 2.83955 19.9083 2.01076C19.2436 1.18198 18.348 0.568929 17.3348 0.249131C16.3216 -0.0706671 15.2364 -0.0828492 14.2163 0.214125C13.1962 0.5111 12.2871 1.10389 11.6039 1.91754C10.9207 2.7312 10.4941 3.72916 10.3781 4.78525C10.2621 5.84134 10.4618 6.90812 10.952 7.85069C11.61 9.11424 12.7427 10.0649 14.1012 10.4937C15.4597 10.9225 16.9329 10.7944 18.197 10.1375Z" fill="#006738"/>
</g>
<g id="g856">
<path id="path858" d="M63.6707 19.1598C66.0824 19.0972 64.7701 20.9397 63.9743 21.2049C54.3786 24.4354 44.2921 25.9637 34.1701 25.7209C34.1071 29.9891 34.0237 34.575 33.9119 39.1817C44.3503 46.0464 55.0399 52.8241 61.1999 56.0243C61.7828 56.3244 66.4141 58.1285 61.7128 53.4521C40.5777 32.4251 62.3236 22.8521 64.3617 21.4283C65.0456 20.9502 66.1415 19.0898 63.6707 19.1598Z" fill="#4B6BAB"/>
</g>
<g id="g860">
<path id="path862" d="M63.6705 19.1595C63.3101 19.1757 62.9511 19.2153 62.5957 19.2781C41.2337 22.9774 38.2429 8.9899 35.2972 1.56656C35.109 1.09548 34.5154 -0.0563719 33.8245 0.0185652C34.3934 -0.0651673 34.4226 1.58908 34.4226 1.58908L34.3522 3.91107C34.3522 3.91107 34.3487 13.5083 34.1707 25.7237C44.341 25.9585 54.4804 24.5141 64.1807 21.4488C65.1162 21.1557 66.1596 19.0441 63.6712 19.162" fill="#3BA9C8"/>
</g>
<g id="g864">
<path id="path866" d="M2.00549 53.6936C1.33704 54.196 -0.926181 54.2277 0.497622 52.28C-0.96453 54.2762 1.18506 54.43 1.97032 54.1401C4.30146 53.2711 24.557 40.8259 29.8029 70.1868C30.9685 76.713 32.1249 71.8755 32.2072 71.2268C33.0868 64.3375 33.6068 51.6795 33.9104 39.1822C30.0608 36.6519 26.2464 34.1111 22.7043 31.7311C17.1372 40.202 10.1322 47.635 2.00549 53.6936Z" fill="#E74E58"/>
</g>
<g id="g868">
<path id="path870" d="M26.5939 25.1968C25.4632 27.3049 24.1755 29.4963 22.7095 31.73C26.2484 34.1104 30.0663 36.6509 33.9159 39.1847C34.0274 34.5759 34.1112 29.9885 34.1742 25.7203C31.5042 25.6541 28.9708 25.4691 26.5939 25.1968Z" fill="#553F93"/>
</g>
<g id="g872">
<path id="path874" d="M26.5912 25.1963C28.9677 25.4686 31.5015 25.6537 34.1714 25.7198C34.3494 13.5051 34.353 3.90717 34.353 3.90717C34.353 3.90717 32.9953 13.2507 26.5912 25.1963Z" fill="#457A85"/>
</g>
<g id="g876">
<path id="path878" d="M1.88999 54.0084C10.0643 47.8427 17.1068 40.3054 22.7042 31.732C12.5659 24.9195 4.67498 19.4536 4.67498 19.4536L2.72766 18.1938C2.72766 18.1938 1.4643 17.2829 1.75033 16.8431C1.32815 17.3804 1.92623 18.5009 2.20065 18.9189C6.6258 25.5682 16.4186 35.9883 1.20607 51.4591C0.950767 51.7154 0.713972 51.9894 0.497498 52.2792C-0.929824 54.2265 1.22013 54.5094 1.88999 54.007" fill="#F7943D"/>
</g>
<g id="g880">
<path id="path882" d="M22.7055 31.7313C24.1712 29.4976 25.4592 27.3061 26.5899 25.198C13.129 23.6623 4.67664 19.4536 4.67664 19.4536C4.67664 19.4536 12.5675 24.9222 22.7058 31.732" fill="#E8D43A"/>
</g>
<g id="g884">
<path id="path886" d="M33.8237 0.0171279C33.4571 0.055476 33.0627 0.43579 32.6895 1.44797C32.6789 1.47928 32.6652 1.51059 32.6511 1.54577C32.5603 1.73083 32.4661 1.93664 32.3616 2.16356C30.2781 6.84695 27.0256 12.1935 21.5534 15.2543C15.8508 18.1614 9.48852 17.7952 4.37592 16.8284C4.04767 16.7657 3.75813 16.7204 3.50342 16.6852C2.58869 16.4653 2.07962 16.5385 1.8249 16.7689C1.7954 16.7891 1.77046 16.8152 1.75172 16.8456C1.46534 17.2854 2.72873 18.1927 2.72873 18.1927L4.67603 19.4561C4.67603 19.4561 13.1288 23.6613 26.5942 25.197C32.9973 13.2507 34.3525 3.90823 34.3525 3.90823L34.4257 1.58623C34.4257 1.58623 34.3944 -0.0673082 33.8255 0.0157207" fill="#6DA253"/>
</g>
</g>
</g>
</g>
</g>
</g>
</g>
</svg>
